<svg id="Слой_1" data-name="Слой 1" xmlns="http://www.w3.org/2000/svg" viewBox="0 0 45 45"><defs><style>.cls-1{fill:#005693;}.cls-2{fill:#fff;}</style></defs><title>insta_normal</title><circle class="cls-1" cx="22.5" cy="22.5" r="22.5"/><path class="cls-2" d="M307.28,144.94a1,1,0,1,0-1,1,1,1,0,0,0,1-1m-5.69,7.54a2.9,2.9,0,1,1,2.9-2.9,2.9,2.9,0,0,1-2.9,2.9m0-7.36a4.47,4.47,0,1,0,4.47,4.47,4.47,4.47,0,0,0-4.47-4.47m0-4.23c-2.36,0-2.66,0-3.59.05a6.38,6.38,0,0,0-2.11.4,4.45,4.45,0,0,0-2.54,2.54,6.39,6.39,0,0,0-.4,2.11c0,0.93-.05,1.22-0.05,3.59s0,2.66.05,3.59a6.39,6.39,0,0,0,.4,2.11,4.45,4.45,0,0,0,2.54,2.54,6.39,6.39,0,0,0,2.11.4c0.93,0,1.22.05,3.59,0.05s2.66,0,3.59-.05a6.39,6.39,0,0,0,2.11-.4,4.45,4.45,0,0,0,2.54-2.54,6.38,6.38,0,0,0,.4-2.11c0-.93.05-1.22,0.05-3.59s0-2.66-.05-3.59a6.38,6.38,0,0,0-.4-2.11,4.45,4.45,0,0,0-2.54-2.54,6.38,6.38,0,0,0-2.11-.4c-0.93,0-1.22-.05-3.59-0.05m0,1.57c2.32,0,2.6,0,3.51.05a4.8,4.8,0,0,1,1.61.3,2.88,2.88,0,0,1,1.65,1.65,4.82,4.82,0,0,1,.3,1.61c0,0.92.05,1.19,0.05,3.51s0,2.6-.05,3.51a4.82,4.82,0,0,1-.3,1.62,2.88,2.88,0,0,1-1.65,1.65,4.81,4.81,0,0,1-1.61.3c-0.92,0-1.19.05-3.51,0.05s-2.6,0-3.51-.05a4.81,4.81,0,0,1-1.61-.3,2.88,2.88,0,0,1-1.65-1.65,4.82,4.82,0,0,1-.3-1.62c0-.92-0.05-1.19-0.05-3.51s0-2.6.05-3.51a4.82,4.82,0,0,1,.3-1.61,2.88,2.88,0,0,1,1.65-1.65,4.8,4.8,0,0,1,1.61-.3c0.92,0,1.19-.05,3.51-0.05" transform="translate(-279.09 -127.08)"/></svg>