<svg id="Слой_1" data-name="Слой 1" xmlns="http://www.w3.org/2000/svg" viewBox="0 0 45 45"><defs><style>.cls-1{fill:#005693;}.cls-2{fill:#fff;}</style></defs><title>twitter_normal</title><path class="cls-1" d="M236.59,172.08a22.5,22.5,0,1,0-22.5-22.5,22.5,22.5,0,0,0,22.5,22.5" transform="translate(-214.09 -127.08)"/><path class="cls-2" d="M245.12,145.12a7,7,0,0,1-2,.55,3.5,3.5,0,0,0,1.54-1.93,7,7,0,0,1-2.22.85,3.5,3.5,0,0,0-6,3.19,9.92,9.92,0,0,1-7.2-3.65,3.5,3.5,0,0,0,1.08,4.67,3.5,3.5,0,0,1-1.58-.44v0a3.5,3.5,0,0,0,2.8,3.43,3.41,3.41,0,0,1-.92.12,3.46,3.46,0,0,1-.66-0.06,3.5,3.5,0,0,0,3.26,2.43,7.07,7.07,0,0,1-5.17,1.45,9.94,9.94,0,0,0,15.3-8.37c0-.15,0-0.3,0-0.45a7.09,7.09,0,0,0,1.74-1.81" transform="translate(-214.09 -127.08)"/></svg>